<svg aria-hidden="true" style="position: absolute; width: 0; height: 0; overflow: hidden;" version="1.1" xmlns="http://www.w3.org/2000/svg" xmlns:xlink="http://www.w3.org/1999/xlink">
<defs>
<symbol id="icon-btn" viewBox="0 0 27 32">
<path d="M25.855 13.794c1.245 0.733 1.245 2.534 0 3.266l-23 13.529c-1.263 0.743-2.855-0.168-2.855-1.633v-27.059c0-1.465 1.592-2.376 2.855-1.633l23 13.529z"></path>
</symbol>
<symbol id="icon-Path" viewBox="0 0 43 32">
<path d="M42.042 0.638c-0.833-0.851-2.184-0.851-3.017 0l-25.559 26.102-9.824-10.033c-0.833-0.851-2.184-0.851-3.017 0s-0.833 2.23 0 3.081l11.333 11.574c0.833 0.851 2.184 0.85 3.017 0l27.067-27.643c0.833-0.851 0.833-2.23 0-3.081z"></path>
</symbol>
<symbol id="icon-untitled" viewBox="0 0 37 32">
<path d="M18.286 31.347c0.327 0 0.653-0.122 0.898-0.367l12.714-12.245c0.184-0.184 4.673-4.286 4.673-9.184 0-5.98-3.653-9.551-9.755-9.551-3.571 0-6.918 2.816-8.53 4.408-1.612-1.592-4.959-4.408-8.531-4.408-6.102 0-9.755 3.571-9.755 9.551 0 4.898 4.49 9 4.653 9.143l12.735 12.286c0.245 0.245 0.571 0.367 0.898 0.367z"></path>
</symbol>
<symbol id="icon-1" viewBox="0 0 41 32">
<path d="M21.673 11.204l2.674 1.245 3.98-1.184v-2.775c0-4.714-3.98-8.49-8.735-8.49-4.735 0-8.735 3.755-8.735 8.429v12.653c0 1.163-0.939 2.082-2.082 2.082s-2.082-0.918-2.082-2.082v-5.347h-6.694c0 5.367 0 5.429 0 5.429 0 4.837 3.918 8.755 8.755 8.755 4.796 0 8.755-3.857 8.755-8.633v-12.49c0-1.143 0.939-2.082 2.082-2.082s2.082 0.939 2.082 2.082v2.408zM32.49 15.735v5.612c0 1.143-0.939 2.061-2.082 2.061s-2.082-0.918-2.082-2.061v-5.51l-3.98 1.184-2.674-1.245v5.469c0 4.796 3.939 8.674 8.755 8.674 4.837 0 8.755-3.918 8.755-8.755 0 0 0-0.061 0-5.429h-6.694z"></path>
</symbol>
<symbol id="icon-2" viewBox="0 0 21 32">
<path d="M19.042 17.529l-17.21-17.21c-0.202-0.218-0.471-0.319-0.756-0.319-0.134 0-0.286 0.034-0.403 0.084-0.403 0.168-0.672 0.555-0.672 0.992v25.277c0 0.437 0.269 0.824 0.672 0.992 0.118 0.050 0.269 0.084 0.403 0.084 0.286 0 0.555-0.118 0.756-0.319l5.244-5.244 3.21 7.597c0.235 0.538 0.857 0.807 1.412 0.571l2.975-1.26c0.538-0.235 0.807-0.857 0.571-1.412l-3.378-8h6.42c0.437 0 0.824-0.269 0.992-0.672 0.168-0.387 0.084-0.857-0.235-1.16z"></path>
</symbol>
<symbol id="icon-3" viewBox="0 0 28 32">
<path d="M25.143 2.286h1.714c0.321 0 0.571-0.25 0.571-0.571v-1.143c0-0.321-0.25-0.571-0.571-0.571h-26.286c-0.321 0-0.571 0.25-0.571 0.571v1.143c0 0.321 0.25 0.571 0.571 0.571h1.714c0 6.607 3.161 11.393 6.661 13.714-3.5 2.321-6.661 7.107-6.661 13.714h-1.714c-0.321 0-0.571 0.25-0.571 0.571v1.143c0 0.321 0.25 0.571 0.571 0.571h26.286c0.321 0 0.571-0.25 0.571-0.571v-1.143c0-0.321-0.25-0.571-0.571-0.571h-1.714c0-6.607-3.161-11.393-6.661-13.714 3.5-2.321 6.661-7.107 6.661-13.714zM22.857 2.286c0 2.607-0.589 4.911-1.518 6.857h-15.25c-0.929-1.946-1.518-4.25-1.518-6.857h18.286zM21.839 24h-16.25c1.321-3.446 3.696-5.893 6.071-6.857h4.107c2.375 0.964 4.75 3.411 6.071 6.857z"></path>
</symbol>
</defs>
</svg>
